<svg xmlns="http://www.w3.org/2000/svg" xmlns:xlink="http://www.w3.org/1999/xlink" width="1920" zoomAndPan="magnify" viewBox="0 0 1440 809.999993" height="1080" preserveAspectRatio="xMidYMid meet" version="1.0"><defs><g/><clipPath id="cd143e5cee"><path d="M 1185.769531 191.457031 L 1329 191.457031 L 1329 281 L 1185.769531 281 Z M 1185.769531 191.457031 " clip-rule="nonzero"/></clipPath><clipPath id="ce50070494"><path d="M 1222 218 L 1304 218 L 1304 327.207031 L 1222 327.207031 Z M 1222 218 " clip-rule="nonzero"/></clipPath></defs><g fill="#58744a" fill-opacity="1"><g transform="translate(124.511719, 546.167306)"><g><path d="M 214.109375 -143.5625 L 166.875 -143.5625 C 165.070312 -155.71875 159.890625 -165.265625 151.328125 -172.203125 C 142.773438 -179.140625 132.097656 -182.609375 119.296875 -182.609375 C 102.179688 -182.609375 88.460938 -176.332031 78.140625 -163.78125 C 67.828125 -151.238281 62.671875 -133.460938 62.671875 -110.453125 C 62.671875 -86.867188 67.863281 -68.945312 78.25 -56.6875 C 88.644531 -44.425781 102.21875 -38.296875 118.96875 -38.296875 C 131.414062 -38.296875 141.953125 -41.546875 150.578125 -48.046875 C 159.210938 -54.554688 164.644531 -63.707031 166.875 -75.5 L 214.109375 -75.296875 C 212.453125 -61.773438 207.632812 -49.046875 199.65625 -37.109375 C 191.675781 -25.171875 180.835938 -15.5 167.140625 -8.09375 C 153.441406 -0.6875 137.132812 3.015625 118.21875 3.015625 C 98.519531 3.015625 80.921875 -1.441406 65.421875 -10.359375 C 49.921875 -19.273438 37.691406 -32.179688 28.734375 -49.078125 C 19.785156 -65.972656 15.3125 -86.429688 15.3125 -110.453125 C 15.3125 -134.546875 19.84375 -155.039062 28.90625 -171.9375 C 37.96875 -188.832031 50.265625 -201.71875 65.796875 -210.59375 C 81.328125 -219.476562 98.800781 -223.921875 118.21875 -223.921875 C 135.257812 -223.921875 150.628906 -220.773438 164.328125 -214.484375 C 178.023438 -208.191406 189.242188 -199.0625 197.984375 -187.09375 C 206.722656 -175.125 212.097656 -160.613281 214.109375 -143.5625 Z M 214.109375 -143.5625 "/></g></g></g><g fill="#58744a" fill-opacity="1"><g transform="translate(352.976842, 546.167306)"><g><path d="M 124.578125 -70.546875 L 124.578125 -165.6875 L 170.53125 -165.6875 L 170.53125 0 L 126.421875 0 L 126.421875 -30.09375 L 124.6875 -30.09375 C 120.945312 -20.382812 114.742188 -12.582031 106.078125 -6.6875 C 97.421875 -0.789062 86.867188 2.15625 74.421875 2.15625 C 57.742188 2.15625 44.242188 -3.394531 33.921875 -14.5 C 23.597656 -25.613281 18.40625 -40.84375 18.34375 -60.1875 L 18.34375 -165.6875 L 64.28125 -165.6875 L 64.28125 -68.390625 C 64.351562 -58.609375 66.976562 -50.875 72.15625 -45.1875 C 77.332031 -39.507812 84.273438 -36.671875 92.984375 -36.671875 C 101.253906 -36.671875 108.601562 -39.546875 115.03125 -45.296875 C 121.46875 -51.054688 124.648438 -59.472656 124.578125 -70.546875 Z M 124.578125 -70.546875 "/></g></g></g><g fill="#58744a" fill-opacity="1"><g transform="translate(541.854245, 546.167306)"><g><path d="M 64.28125 -220.90625 L 64.28125 0 L 18.34375 0 L 18.34375 -220.90625 Z M 64.28125 -220.90625 "/></g></g></g><g fill="#58744a" fill-opacity="1"><g transform="translate(624.481362, 546.167306)"><g><path d="M 106.46875 -165.6875 L 106.46875 -131.171875 L 75.296875 -131.171875 L 75.296875 -50.90625 C 75.296875 -44.582031 76.734375 -40.304688 79.609375 -38.078125 C 82.484375 -35.847656 86.222656 -34.734375 90.828125 -34.734375 C 92.984375 -34.734375 95.140625 -34.929688 97.296875 -35.328125 C 99.453125 -35.722656 101.101562 -36.03125 102.25 -36.25 L 109.484375 -2.046875 C 107.179688 -1.328125 103.941406 -0.484375 99.765625 0.484375 C 95.597656 1.453125 90.53125 2.046875 84.5625 2.265625 C 67.882812 2.984375 54.492188 -0.628906 44.390625 -8.578125 C 34.285156 -16.523438 29.269531 -28.625 29.34375 -44.875 L 29.34375 -131.171875 L 6.6875 -131.171875 L 6.6875 -165.6875 L 29.34375 -165.6875 L 29.34375 -205.375 L 75.296875 -205.375 L 75.296875 -165.6875 Z M 106.46875 -165.6875 "/></g></g></g><g fill="#58744a" fill-opacity="1"><g transform="translate(742.489352, 546.167306)"><g><path d="M 18.34375 0 L 18.34375 -165.6875 L 64.28125 -165.6875 L 64.28125 0 Z M 41.421875 -187.046875 C 34.660156 -187.046875 28.835938 -189.328125 23.953125 -193.890625 C 19.066406 -198.453125 16.625 -203.9375 16.625 -210.34375 C 16.625 -216.738281 19.066406 -222.203125 23.953125 -226.734375 C 28.835938 -231.265625 34.660156 -233.53125 41.421875 -233.53125 C 48.253906 -233.53125 54.113281 -231.265625 59 -226.734375 C 63.894531 -222.203125 66.34375 -216.738281 66.34375 -210.34375 C 66.34375 -203.9375 63.894531 -198.453125 59 -193.890625 C 54.113281 -189.328125 48.253906 -187.046875 41.421875 -187.046875 Z M 41.421875 -187.046875 "/></g></g></g><g fill="#58744a" fill-opacity="1"><g transform="translate(825.116469, 546.167306)"><g><path d="M 172.796875 -165.6875 L 114.875 0 L 63.09375 0 L 5.171875 -165.6875 L 53.71875 -165.6875 L 88.125 -47.140625 L 89.859375 -47.140625 L 124.15625 -165.6875 Z M 172.796875 -165.6875 "/></g></g></g><g fill="#58744a" fill-opacity="1"><g transform="translate(1003.09923, 546.167306)"><g><path d="M 57.28125 0 L 7.234375 0 L 83.484375 -220.90625 L 143.671875 -220.90625 L 219.828125 0 L 169.78125 0 L 153.390625 -50.375 L 73.671875 -50.375 Z M 85.53125 -86.828125 L 141.625 -86.828125 L 114.453125 -170.421875 L 112.71875 -170.421875 Z M 85.53125 -86.828125 "/></g></g></g><g fill="#58744a" fill-opacity="1"><g transform="translate(1230.269936, 546.167306)"><g><path d="M 65.90625 -220.90625 L 65.90625 0 L 19.203125 0 L 19.203125 -220.90625 Z M 65.90625 -220.90625 "/></g></g></g><g clip-path="url(#cd143e5cee)"><path fill="#bfe063" d="M 1268.433594 276.582031 C 1268.433594 276.582031 1241.164062 277.453125 1215.644531 255.554688 C 1190.121094 233.65625 1186.191406 192.183594 1185.898438 192.476562 C 1185.609375 192.765625 1224.523438 184.964844 1253.003906 210.835938 C 1281.488281 236.707031 1268.433594 276.582031 1268.433594 276.582031 Z M 1321.371094 249.015625 C 1329.523438 232.785156 1328.84375 212.046875 1328.84375 212.046875 C 1328.84375 212.046875 1302.59375 211.855469 1288.039062 229.828125 C 1269.210938 252.988281 1276.976562 280.503906 1276.976562 280.503906 C 1276.976562 280.503906 1309.582031 272.460938 1321.371094 249.015625 Z M 1321.371094 249.015625 " fill-opacity="1" fill-rule="nonzero"/></g><g clip-path="url(#ce50070494)"><path fill="#6f913d" d="M 1303.128906 235.738281 C 1302.207031 234.769531 1300.652344 234.769531 1299.683594 235.691406 C 1284.300781 250.808594 1276.730469 268.78125 1273.042969 287.09375 C 1268.96875 266.359375 1257.566406 234.867188 1225.589844 218.296875 C 1224.378906 217.667969 1222.921875 218.152344 1222.339844 219.316406 C 1221.707031 220.476562 1222.195312 221.980469 1223.359375 222.5625 C 1268 245.71875 1270.328125 300.03125 1270.425781 306.570312 C 1269.9375 312.722656 1269.792969 318.777344 1269.746094 324.6875 C 1269.746094 326.046875 1270.8125 327.113281 1272.171875 327.113281 C 1273.480469 327.113281 1274.597656 326.046875 1274.597656 324.6875 C 1274.644531 319.167969 1274.792969 313.546875 1275.179688 307.828125 C 1275.226562 307.636719 1275.277344 307.441406 1275.277344 307.246094 L 1275.277344 306.714844 C 1277.121094 283.023438 1283.378906 258.414062 1303.078125 239.082031 C 1304.050781 238.210938 1304.050781 236.707031 1303.128906 235.738281 Z M 1303.128906 235.738281 " fill-opacity="1" fill-rule="nonzero"/></g></svg>